PathFileType	4	(X/Y/Z)	s05c0201.trc
DataRate	CameraRate	NumFrames	NumMarkers	Units	OrigDataRate	OrigDataStartFrame	OrigNumFrames
200	200	4	50	mm	200	750	2000
Frame#	Time	racr			lacr			c7			jug			rlel			rdr			llel			ldr			s2			lic			ric			lasi			rasi			rpsi			lpsi			rgt			lgt			rth1			rth2			rth3			rth4			rlfc			rmfc			rsh1			rsh2			rsh3			rsh4			rlmal			rmmal			rcal			rtoe			rmt5			lth1			lth2			lth4			lth3			llfc			lmfc			lsh1			lsh2			lsh3			lsh4			llmal			lmmal			lcal			ltoe			lmt5			SBIKE			LBIKE			RBIKE			
		X1	Y1	Z1	X2	Y2	Z2	X3	Y3	Z3	X4	Y4	Z4	X5	Y5	Z5	X6	Y6	Z6	X7	Y7	Z7	X8	Y8	Z8	X9	Y9	Z9	X10	Y10	Z10	X11	Y11	Z11	X12	Y12	Z12	X13	Y13	Z13	X14	Y14	Z14	X15	Y15	Z15	X16	Y16	Z16	X17	Y17	Z17	X18	Y18	Z18	X19	Y19	Z19	X20	Y20	Z20	X21	Y21	Z21	X22	Y22	Z22	X23	Y23	Z23	X24	Y24	Z24	X25	Y25	Z25	X26	Y26	Z26	X27	Y27	Z27	X28	Y28	Z28	X29	Y29	Z29	X30	Y30	Z30	X31	Y31	Z31	X32	Y32	Z32	X33	Y33	Z33	X34	Y34	Z34	X35	Y35	Z35	X36	Y36	Z36	X37	Y37	Z37	X38	Y38	Z38	X39	Y39	Z39	X40	Y40	Z40	X41	Y41	Z41	X42	Y42	Z42	X43	Y43	Z43	X44	Y44	Z44	X45	Y45	Z45	X46	Y46	Z46	X47	Y47	Z47	X48	Y48	Z48	X49	Y49	Z49	X50	Y50	Z50	
750	3.7500	470.350659	1254.703088	-126.188515	495.348856	1235.183535	-376.657682	459.768123	1326.210058	-262.602068	396.813852	1176.435692	-252.659559	461.499827	1043.291100	53.065907	660.777057	965.565456	-66.241417	458.822494	1061.631121	-619.714987	650.896302	963.444945	-483.888093	-114.480546	1174.715671	-297.036524	35.868946	1168.337780	-432.085381	22.662161	1209.453640	-150.849332	77.775379	1117.953907	-389.242318	69.901280	1143.223893	-169.034119	-78.971859	1225.517834	-261.547097	-74.021277	1219.340712	-347.026476	-16.363237	1073.596712	-116.404587	-24.101711	1071.239355	-456.894587	72.227826	978.949041	-98.723752	143.545043	925.483605	-101.402326	177.356849	844.266055	-108.266816	170.834718	948.081073	-113.730704	274.629688	730.930972	-132.431872	254.456541	718.343889	-238.308293	238.926737	629.072274	-96.704765	254.336659	541.943179	-104.069003	227.871577	460.786258	-101.834751	280.926577	541.528791	-131.792375	225.217506	320.996178	-106.985255	229.081621	348.237505	-187.573630	156.386949	280.963792	-146.622241	452.235599	291.546424	-161.806390	358.718234	256.464544	-89.757023	90.870007	988.833533	-457.575807	175.596098	973.309424	-451.629718	191.402676	1004.156239	-436.455360	242.618462	912.672051	-446.002819	351.778688	816.504600	-403.270661	324.214399	804.042787	-298.291523	259.483821	735.869187	-437.467504	211.460102	664.084553	-429.424724	132.183085	623.337521	-436.454746	230.447845	643.038037	-403.136295	47.388089	543.491227	-438.927760	78.945230	544.108276	-360.157079	-22.064384	560.408435	-397.122020	148.677055	319.219032	-398.898756	62.038365	387.098617	-462.399186	-264.606760	894.770206	-286.754815	-53.399857	79.021821	-475.014416	-53.426969	79.074469	-77.392648	
751	3.7550	471.266728	1256.341323	-127.176150	495.732266	1234.631188	-377.848130	460.642018	1326.821128	-264.246302	397.223882	1177.168857	-253.360038	461.966100	1045.443388	52.820893	660.712843	965.606429	-66.350111	458.597115	1059.819666	-619.839627	651.359500	963.331484	-483.772579	-113.657963	1175.169326	-294.568450	35.519379	1169.635075	-430.668287	24.376040	1209.849371	-149.107799	77.785708	1119.132958	-387.831804	71.181212	1143.475611	-167.600713	-77.849947	1226.138147	-259.116505	-73.583997	1220.409709	-344.599691	-15.727686	1072.730843	-115.084073	-23.672339	1073.931451	-455.615766	71.046509	976.028133	-97.557403	140.744798	920.594327	-100.600485	172.213786	838.431344	-107.605079	168.596099	942.629338	-112.865273	267.338404	723.415013	-132.248941	245.461519	710.661727	-237.439409	232.826251	621.447121	-95.930892	248.973711	534.539956	-103.695336	223.485574	453.078574	-101.182010	275.366308	534.389173	-132.090467	222.070005	313.472083	-106.653463	225.874384	340.058576	-187.233332	152.953914	274.050147	-146.122105	449.024455	280.466235	-162.106038	355.114005	247.071510	-89.813242	92.391357	993.097745	-457.626692	177.353649	979.625230	-450.922638	192.232899	1010.597448	-434.968755	245.875421	920.493913	-445.745391	356.778844	825.799886	-403.240787	329.230905	812.721273	-298.264853	264.362907	745.103800	-437.102362	216.084094	673.321178	-429.079748	136.690951	632.991274	-436.053548	235.046118	652.290526	-402.856884	51.371923	553.474069	-438.652777	82.948417	554.041406	-359.779386	-18.258841	570.219747	-396.939006	153.117968	329.350467	-398.899072	66.366741	397.196065	-462.331111	-264.690154	894.803661	-286.538823	-53.401358	79.086063	-475.004881	-53.428943	79.079136	-77.389131	
752	3.7600	472.281928	1257.914772	-128.381433	496.141373	1233.985179	-379.081504	461.672700	1327.414242	-265.931514	397.699102	1177.885102	-254.136688	462.515832	1047.671737	52.506681	660.607238	965.620701	-66.476219	458.304052	1057.908675	-620.028374	651.989918	963.236596	-483.685595	-112.795554	1176.060242	-292.130070	36.015556	1171.395783	-430.300401	26.140010	1210.118081	-147.371792	77.948327	1120.828628	-386.810600	72.554610	1143.662802	-166.213388	-75.604207	1226.859933	-256.522987	-72.985438	1221.624378	-341.999158	-15.142384	1071.914343	-113.659148	-23.172822	1076.760247	-454.388489	69.020706	973.024565	-96.968568	137.485299	915.901988	-99.730259	166.623344	832.895752	-106.739141	166.069688	937.317740	-111.984708	259.390245	716.045273	-131.691960	236.123270	703.537815	-236.433416	226.112687	614.015995	-95.162289	243.067201	527.270099	-103.401447	218.683722	445.553356	-100.441510	269.141095	527.570934	-132.100612	218.277973	306.269693	-106.495433	222.380926	332.161456	-187.040066	148.934293	267.463226	-145.984926	445.191138	269.690793	-162.207962	350.874071	237.825787	-89.850444	93.748751	997.896026	-457.325951	178.920287	986.322113	-450.112464	192.936270	1017.426834	-433.577831	248.788162	928.817096	-445.574937	361.510169	835.251981	-403.480616	334.220966	821.365366	-298.185683	269.240345	754.578978	-436.705011	220.642053	682.793702	-428.624788	141.352832	642.529592	-435.433355	239.888674	661.694698	-402.771936	55.469108	563.059175	-438.340356	87.072317	563.735423	-359.454868	-14.085694	579.490446	-396.587706	158.251085	339.533045	-398.897282	71.291066	406.935593	-462.156131	-264.646258	894.854095	-286.672471	-53.405298	79.123270	-474.981838	-53.420125	79.107600	-77.399857	
753	3.7650	473.385216	1259.399676	-129.730612	496.606906	1233.496424	-380.302585	462.750197	1328.050329	-267.756708	398.191952	1178.813145	-255.253467	463.139400	1049.897080	52.095983	660.531534	965.629819	-66.614521	457.890721	1055.826570	-620.244826	652.633096	963.218531	-483.795731	-111.992745	1177.053612	-289.728786	35.612734	1172.905673	-428.787410	28.087094	1210.207341	-145.616320	77.799108	1123.012060	-385.531441	74.015965	1143.705904	-164.930098	-74.686437	1227.565304	-253.864030	-72.479456	1222.933953	-339.464033	-14.711104	1071.246926	-112.351440	-22.645836	1079.627644	-453.339368	67.148093	970.581211	-95.615579	133.900966	911.445350	-98.570858	160.752364	827.756563	-105.564336	163.131935	932.381899	-110.576154	250.866765	708.851928	-130.884268	226.502739	696.546648	-235.102340	218.742355	606.777501	-94.313120	236.585799	520.348436	-102.943195	213.290161	438.346561	-99.893637	262.395439	520.968592	-131.884033	213.913049	299.065799	-106.425831	217.940605	325.007220	-186.827161	144.466582	261.265340	-146.146033	440.804665	259.099521	-162.054605	345.933984	228.720326	-89.829806	94.843700	1003.099255	-456.540922	180.275697	993.293315	-449.249977	193.538488	1024.489872	-432.306394	251.364106	937.326565	-445.308765	366.060095	844.996292	-403.441611	339.156503	830.211536	-298.137328	274.031480	764.223917	-436.295903	225.482725	692.463162	-428.442297	146.139374	652.288274	-435.181649	244.775947	671.192467	-402.694586	59.755852	572.396732	-438.027130	91.515698	573.182052	-359.166535	-10.166602	588.185572	-396.152207	164.058963	349.480683	-398.946894	76.747291	416.561226	-462.104133	-264.601271	894.917685	-286.603057	-53.404798	79.204215	-474.985185	-53.418828	79.105687	-77.398396	
